<svg xmlns="http://www.w3.org/2000/svg" width="960" height="126" viewBox="0 0 960 126" font-family="Segoe UI, Ubuntu, Helvetica, sans-serif">
<text x="20" y="28" fill="#58a6ff" font-size="15" font-weight="600">Most used languages</text>
<clipPath id="bar"><rect x="20" y="46" width="920" height="10" rx="5.0"/></clipPath>
<g clip-path="url(#bar)">
<rect x="20.00" y="46" width="691.26" height="10" fill="#3178c6"/>
<rect x="711.26" y="46" width="148.22" height="10" fill="#f34b7d"/>
<rect x="859.48" y="46" width="45.35" height="10" fill="#3572A5"/>
<rect x="904.83" y="46" width="16.14" height="10" fill="#f1e05a"/>
<rect x="920.98" y="46" width="6.89" height="10" fill="#89e051"/>
<rect x="927.86" y="46" width="6.67" height="10" fill="#DA3434"/>
<rect x="934.54" y="46" width="3.46" height="10" fill="#336790"/>
<rect x="937.99" y="46" width="2.01" height="10" fill="#663399"/>
</g>
<circle cx="25.00" cy="84.00" r="5" fill="#3178c6"/>
<text x="38.00" y="88.00" fill="#9CA3AF" font-size="13">TypeScript 75.14%</text>
<circle cx="255.00" cy="84.00" r="5" fill="#f34b7d"/>
<text x="268.00" y="88.00" fill="#9CA3AF" font-size="13">C++ 16.11%</text>
<circle cx="485.00" cy="84.00" r="5" fill="#3572A5"/>
<text x="498.00" y="88.00" fill="#9CA3AF" font-size="13">Python 4.93%</text>
<circle cx="715.00" cy="84.00" r="5" fill="#f1e05a"/>
<text x="728.00" y="88.00" fill="#9CA3AF" font-size="13">JavaScript 1.75%</text>
<circle cx="25.00" cy="110.00" r="5" fill="#89e051"/>
<text x="38.00" y="114.00" fill="#9CA3AF" font-size="13">Shell 0.75%</text>
<circle cx="255.00" cy="110.00" r="5" fill="#DA3434"/>
<text x="268.00" y="114.00" fill="#9CA3AF" font-size="13">CMake 0.73%</text>
<circle cx="485.00" cy="110.00" r="5" fill="#336790"/>
<text x="498.00" y="114.00" fill="#9CA3AF" font-size="13">PLpgSQL 0.38%</text>
<circle cx="715.00" cy="110.00" r="5" fill="#663399"/>
<text x="728.00" y="114.00" fill="#9CA3AF" font-size="13">CSS 0.22%</text>
</svg>
