<svg xmlns="http://www.w3.org/2000/svg" width="960" height="126" viewBox="0 0 960 126" font-family="Segoe UI, Ubuntu, Helvetica, sans-serif">
<text x="20" y="28" fill="#58a6ff" font-size="15" font-weight="600">Most used languages</text>
<clipPath id="bar"><rect x="20" y="46" width="920" height="10" rx="5.0"/></clipPath>
<g clip-path="url(#bar)">
<rect x="20.00" y="46" width="688.20" height="10" fill="#3178c6"/>
<rect x="708.20" y="46" width="151.31" height="10" fill="#f34b7d"/>
<rect x="859.51" y="46" width="45.29" height="10" fill="#3572A5"/>
<rect x="904.80" y="46" width="15.97" height="10" fill="#f1e05a"/>
<rect x="920.77" y="46" width="7.21" height="10" fill="#89e051"/>
<rect x="927.98" y="46" width="6.61" height="10" fill="#DA3434"/>
<rect x="934.59" y="46" width="3.42" height="10" fill="#336790"/>
<rect x="938.01" y="46" width="1.99" height="10" fill="#663399"/>
</g>
<circle cx="25.00" cy="84.00" r="5" fill="#3178c6"/>
<text x="38.00" y="88.00" fill="#9CA3AF" font-size="13">TypeScript 74.80%</text>
<circle cx="255.00" cy="84.00" r="5" fill="#f34b7d"/>
<text x="268.00" y="88.00" fill="#9CA3AF" font-size="13">C++ 16.45%</text>
<circle cx="485.00" cy="84.00" r="5" fill="#3572A5"/>
<text x="498.00" y="88.00" fill="#9CA3AF" font-size="13">Python 4.92%</text>
<circle cx="715.00" cy="84.00" r="5" fill="#f1e05a"/>
<text x="728.00" y="88.00" fill="#9CA3AF" font-size="13">JavaScript 1.74%</text>
<circle cx="25.00" cy="110.00" r="5" fill="#89e051"/>
<text x="38.00" y="114.00" fill="#9CA3AF" font-size="13">Shell 0.78%</text>
<circle cx="255.00" cy="110.00" r="5" fill="#DA3434"/>
<text x="268.00" y="114.00" fill="#9CA3AF" font-size="13">CMake 0.72%</text>
<circle cx="485.00" cy="110.00" r="5" fill="#336790"/>
<text x="498.00" y="114.00" fill="#9CA3AF" font-size="13">PLpgSQL 0.37%</text>
<circle cx="715.00" cy="110.00" r="5" fill="#663399"/>
<text x="728.00" y="114.00" fill="#9CA3AF" font-size="13">CSS 0.22%</text>
</svg>
